<svg fill="none" xmlns="http://www.w3.org/2000/svg" viewBox="0 2 25 28">
  <path d="M14.5439 2.54609C13.2703 1.81471 11.7008 1.81471 10.4266 2.54609L2.05862 7.35024C0.785071 8.08162 0 9.43277 0 10.8955V20.5045C0 21.9666 0.784444 23.3177 2.05736 24.0491L12.4207 30.0024L12.4759 17.8321C12.4821 16.5115 13.1926 15.2938 14.3426 14.6335L24.9705 8.5318L14.5439 2.54609Z" fill="#010101"/>
  <path d="M14.5658 18.8874V21.6726L24.0582 16.2231C24.6231 15.8989 24.9724 15.3009 24.9768 14.6525L25 10.9214L16.3028 15.9001C15.228 16.5155 14.5658 17.6547 14.5658 18.8874Z" fill="#010101"/>
  <path d="M16.2996 23.0668C15.2267 23.6829 14.5665 24.8208 14.5665 26.0522V28.8406L22.2548 24.4267C23.9353 23.4615 24.9712 21.6789 24.9712 19.7491V18.0894L16.3003 23.0675L16.2996 23.0668Z" fill="#010101"/>
</svg>
