<svg fill="none" viewBox="0 0 471.67 306.37">
  <path d="M424.864 211.466c0 67.48-82.355 94.901-184.609 94.901S54.447 278.946 54.447 211.466c0-67.48 82.954-122.084 185.208-122.084 102.255 0 185.209 54.723 185.209 122.084Z" fill="#24A95A"/>
  <path d="M406.057 64.38c0-35.528-29.01-64.38-64.733-64.38-18.577 0-35.318 7.811-47.118 20.252-1.827 1.927-4.498 2.866-7.102 2.34a238.196 238.196 0 0 0-47.075-4.709c-16.312 0-32.124 1.591-47.071 4.682-2.606.54-5.288-.384-7.127-2.308C173.937 7.813 157.203 0 138.734 0c-35.723 0-64.733 28.852-64.733 64.38a63.869 63.869 0 0 0 6.77 28.702c1.033 2.067 1.137 4.488.243 6.62-4.189 9.981-6.414 20.519-6.414 31.443 0 62.592 74.084 113.261 165.429 113.261s165.429-50.669 165.429-113.261c0-10.924-2.225-21.462-6.414-31.443-.894-2.132-.79-4.553.244-6.62a63.878 63.878 0 0 0 6.769-28.702Z" fill="#32DA6D"/>
  <path d="M133.451 100.095c21.847 0 39.559-17.615 39.559-39.344 0-21.729-17.712-39.343-39.559-39.343-21.848 0-39.56 17.614-39.56 39.343 0 21.729 17.712 39.344 39.56 39.344Zm211.044 0c21.848 0 39.559-17.615 39.559-39.344 0-21.729-17.711-39.343-39.559-39.343s-39.559 17.614-39.559 39.343c0 21.729 17.711 39.344 39.559 39.344Z" fill="#fff"/>
  <path d="M112.458 301.512c8.511 0 15.225-7.392 14.265-15.738-3.476-29.567-18.221-93.589-83.073-132.098-71.093-42.227-37.27 70.04-23.132 110.942 2.86 8.273-.457 17.46-8.049 21.818l-4.662 2.677c-5.994 3.457-3.477 12.399 3.356 12.399h101.295Zm257.639 0c-7.672 0-13.666-7.392-12.827-15.738 2.997-29.448 16.423-93.589 74.923-132.098 64.778-42.555 33.248 71.792 20.662 111.882-2.469 7.864.57 16.424 7.533 20.836l4.291 2.719c5.395 3.457 3.117 12.399-2.997 12.399h-91.585Z" fill="#32DA6D"/>
  <path d="M133.505 84.282c13.033 0 23.599-10.565 23.599-23.599 0-13.033-10.566-23.599-23.599-23.599-13.034 0-23.599 10.566-23.599 23.6 0 13.033 10.565 23.598 23.599 23.598Zm211.044 0c13.033 0 23.599-10.565 23.599-23.599 0-13.033-10.566-23.599-23.599-23.599-13.034 0-23.599 10.566-23.599 23.6 0 13.033 10.565 23.598 23.599 23.598Zm-52.152 67.707c5.851.504 10.273 5.695 8.8 11.379a63.373 63.373 0 0 1-42.207 44.52 63.396 63.396 0 0 1-24.579 2.728 63.398 63.398 0 0 1-43.061-22.337 63.38 63.38 0 0 1-14.866-39.162c-.102-3.913 3.374-6.809 7.274-6.474l56.085 4.825 52.554 4.521Z" fill="#092511"/>
</svg>
