<svg fill="none" xmlns="http://www.w3.org/2000/svg" id="svg1210046051_26793" viewBox="16.5 0 19.71 24">
  <path d="M18.4262 3.42923C18.4097 3.37814 18.3917 3.32855 18.3751 3.27746C18.3541 3.25492 18.3316 3.23389 18.3075 3.21435C18.2129 3.14824 18.1032 3.14373 17.9935 3.14373C17.7245 3.14373 17.4555 3.14974 17.1866 3.14072C16.9462 3.13321 16.8936 3.07912 16.8876 2.83569C16.88 2.52465 16.8785 2.21511 16.8876 1.90407C16.8951 1.66516 16.9702 1.59453 17.2136 1.58552C17.4495 1.5765 17.6839 1.58552 17.9199 1.58101C18.0205 1.58101 18.1227 1.59003 18.2159 1.53894C18.3526 1.49686 18.4187 1.56148 18.4533 1.6877C18.4999 1.8605 18.4969 2.0378 18.5044 2.21361C18.5149 2.45553 18.4833 2.69745 18.5374 2.94088C18.5675 3.07311 18.6351 3.09565 18.7343 3.11819H18.7328C18.8079 3.21285 18.9146 3.19632 19.0138 3.19632C19.6133 3.19782 20.2128 3.19332 20.8139 3.19933C20.9551 3.19933 21.1234 3.19482 21.0829 3.42472C21.0258 3.53441 21.0393 3.65462 21.0393 3.77182C21.0363 4.29323 21.0423 4.81464 21.0363 5.33755C21.0333 5.65761 20.9672 5.72222 20.6471 5.72522C20.0491 5.72973 19.451 5.72673 18.8515 5.72522C18.7598 5.72522 18.6652 5.73123 18.5825 5.67714C18.4924 5.58097 18.5074 5.45926 18.5074 5.34356C18.5059 4.79811 18.5074 4.25116 18.5074 3.70571C18.5074 3.60654 18.5239 3.50135 18.4292 3.42772L18.4262 3.42923Z" fill="#BAE24B"/>
  <path d="M21.5899 2.31059C21.5899 1.78918 21.5884 1.26778 21.5869 0.746368C21.644 0.689268 21.7161 0.669734 21.7928 0.669734C22.2375 0.666729 22.6823 0.666729 23.1271 0.669734C23.1947 0.669734 23.2608 0.686263 23.3164 0.728336C23.363 0.782431 23.3795 0.848546 23.381 0.916163C23.3916 1.32938 23.3961 1.7426 23.3795 2.15582C23.3765 2.21593 23.3585 2.27152 23.3224 2.32111C23.2683 2.36769 23.2037 2.38572 23.1361 2.38572C22.6898 2.39173 22.2436 2.39023 21.7973 2.38572C21.7191 2.38572 21.647 2.36919 21.5899 2.30909V2.31059Z" fill="#BAE24B"/>
  <path d="M20.6028 0.0914734C20.6073 0.512206 20.6073 0.934441 20.6163 1.35517C20.6193 1.47388 20.5772 1.51746 20.457 1.51445C20.0348 1.50544 19.6141 1.50393 19.1918 1.49942C19.1362 1.44233 19.1137 1.3717 19.1137 1.29357C19.1107 0.959985 19.1092 0.626405 19.1137 0.292824C19.1137 0.214688 19.1347 0.144065 19.1978 0.0914734V0.0944786C19.2144 0.0779499 19.2294 0.0509028 19.2549 0.0478975C19.6847 -0.0167149 20.1159 -0.0152123 20.5457 0.0478975C20.5697 0.0509028 20.5862 0.0764472 20.6058 0.092976L20.6028 0.0914734Z" fill="#BAE24B"/>
  <path d="M16.8753 8.65649C17.2524 8.6595 17.6311 8.67152 18.0083 8.6595C18.1886 8.65349 18.2472 8.73163 18.2457 8.8879C18.2427 9.28158 18.2367 9.67527 18.2322 10.069C18.172 10.12 18.1014 10.1396 18.0233 10.1411C17.6897 10.1441 17.3561 10.1441 17.021 10.1411C16.9429 10.1411 16.8723 10.12 16.8182 10.0614L16.8107 10.0675C16.7506 10.0028 16.734 9.9217 16.734 9.83605C16.734 9.54454 16.7295 9.25454 16.7355 8.96303C16.7386 8.84432 16.7656 8.73162 16.8738 8.658L16.8753 8.65649Z" fill="#BAE24B"/>
  <path d="M23.1579 3.28348C23.4253 3.28047 23.6928 3.28348 23.9603 3.27146C24.0865 3.26545 24.118 3.31804 24.115 3.43074C24.1075 3.6982 24.1075 3.96416 24.103 4.23163C23.7709 4.34883 23.4404 4.39541 23.1188 4.19557C23.0647 3.88903 23.0001 3.581 23.1579 3.28348Z" fill="#BAE24B"/>
  <path d="M16.505 6.56375C16.505 6.32032 16.5096 6.0754 16.5005 5.83197C16.4945 5.69524 16.5381 5.63513 16.6809 5.63964C16.9408 5.65016 17.2008 5.65166 17.4622 5.65767C17.5088 5.70726 17.5283 5.76586 17.5313 5.83197C17.5103 6.08291 17.5974 6.34286 17.4667 6.58479C17.1437 6.67194 16.8236 6.70199 16.505 6.56375Z" fill="#BAE24B"/>
  <path d="M36.2131 5.3376C36.2086 4.97997 36.1545 4.92588 35.7999 4.92438C31.4303 4.92438 27.0592 4.92438 22.6896 4.92438C22.5814 4.92438 22.4687 4.91085 22.371 4.98148C22.2929 5.07314 22.3019 5.18583 22.3019 5.29402C22.3019 5.74781 22.3019 6.2031 22.3019 6.65689C22.3019 6.98897 22.2914 6.99949 21.9638 6.99949C20.8594 6.99949 19.755 6.99949 18.6506 6.99949C18.5334 6.99949 18.4131 6.98296 18.302 7.03405C18.1412 7.18431 18.3005 7.27447 18.3681 7.38115C18.3876 7.43224 18.347 7.50287 18.4177 7.53743C18.4778 7.5795 18.5228 7.6366 18.5619 7.69821C18.6175 7.74479 18.6806 7.78386 18.7197 7.84696C18.8038 7.88603 18.8128 7.9837 18.8745 8.0408C18.882 8.18956 19.0052 8.30677 19.0788 8.3849C19.462 8.79361 19.6949 9.30901 20.0765 9.71321C20.1532 9.79435 20.2418 9.89503 20.2794 9.97767C20.3981 10.2436 20.646 10.4149 20.7512 10.6824C20.8699 10.7831 20.906 10.9574 21.0578 11.0295C21.2095 11.3841 21.5206 11.626 21.7114 11.9521C21.7835 12.0002 21.8015 12.0934 21.8752 12.1384C21.8977 12.1865 21.9112 12.2331 21.9503 12.2827C22.1532 12.5321 22.338 12.7966 22.5288 13.0565C22.6009 13.1076 22.6385 13.1858 22.6836 13.2564C22.903 13.4983 23.0202 13.8199 23.2846 14.0257C23.3207 14.1264 23.3808 14.209 23.4499 14.2902C23.5882 14.454 23.7414 14.6102 23.8015 14.8266C24.096 15.1151 24.2718 15.4968 24.5619 15.7883C24.9195 16.2105 24.8398 16.7184 24.8398 17.2098C24.8398 19.3435 24.8398 21.4787 24.8398 23.6124C24.8398 23.7446 24.8128 23.8859 24.915 24.0001H25.0171C25.0697 23.928 25.1599 23.9114 25.2215 23.8543C25.2831 23.7281 25.3853 23.68 25.522 23.6951C25.6332 23.6635 25.7519 23.6485 25.8286 23.5433C26.0029 23.4531 26.1681 23.3389 26.3515 23.2773C26.5543 23.2082 26.7121 23.0339 26.942 23.0339C27.0036 22.9738 27.0727 22.9242 27.1509 22.8897C27.1824 22.8882 27.2155 22.8851 27.247 22.8836C27.3026 22.816 27.3943 22.798 27.4559 22.7379C27.6347 22.7274 27.7564 22.5906 27.9172 22.5305C28.2478 22.4073 28.5573 22.2315 28.8759 22.0782C28.9435 21.9655 29.0667 21.958 29.1734 21.9205C29.2079 21.8859 29.241 21.8528 29.2756 21.8183C29.4333 21.7296 29.4048 21.5749 29.4048 21.4351C29.4063 19.7657 29.4048 18.0963 29.4063 16.4269C29.4063 16.3127 29.3747 16.1865 29.4829 16.0963C29.7654 15.7763 30.0133 15.4232 30.2613 15.0806C30.4085 14.8762 30.5873 14.6944 30.7211 14.478C30.8473 14.2722 30.978 14.0693 31.1057 13.8634C31.1959 13.7973 31.2184 13.6741 31.3176 13.6155C31.4078 13.5794 31.3507 13.4637 31.4228 13.4172C31.5084 13.3901 31.4919 13.2849 31.5565 13.2429C31.6272 13.1948 31.6467 13.1046 31.7128 13.0535C31.839 12.9769 31.83 12.768 32.0103 12.7425C32.0449 12.5456 32.2102 12.436 32.3153 12.2872C32.3394 12.2391 32.3003 12.1685 32.3679 12.1354C32.5377 12.0768 32.5633 11.8935 32.673 11.7838C32.7797 11.6711 32.8803 11.5449 32.9615 11.4202C33.1238 11.1708 33.274 10.9108 33.4709 10.6899C33.6902 10.4405 33.8225 10.1294 34.0659 9.89503C34.12 9.84244 34.2177 9.77783 34.2357 9.69969C34.2973 9.44274 34.5227 9.31051 34.6549 9.11066C34.7902 8.90481 34.9569 8.72149 35.0621 8.49609C35.1297 8.42998 35.1778 8.34583 35.256 8.28873C35.2875 8.25267 35.3206 8.21661 35.3521 8.18055C35.4378 8.14148 35.4453 8.03629 35.5159 7.98521C35.4498 7.83344 35.6286 7.83645 35.6737 7.74779C35.7999 7.50888 35.9712 7.294 36.1245 7.07011C36.1696 6.92586 36.2116 6.78161 36.2101 6.62834C36.2071 6.1986 36.2131 5.76734 36.2086 5.3376H36.2131ZM22.2298 9.25942C22.2118 9.25942 22.1937 9.25642 22.1757 9.25492C21.77 9.25492 21.3628 9.25492 20.9571 9.25492C20.8504 9.06709 20.9105 8.86424 20.909 8.6689C20.906 8.40594 20.906 8.23314 20.936 8.11894C20.939 8.08137 20.9511 8.05132 20.9706 8.03028C21.0547 7.89204 21.2501 7.89204 21.6934 7.89204C21.8526 7.89204 22.0134 7.89204 22.1727 7.89204C22.1877 7.9266 22.2042 7.96116 22.2193 7.99572C22.3019 8.07987 22.2809 8.18656 22.2749 8.28423C22.2553 8.60879 22.3305 8.93937 22.2313 9.25942H22.2298ZM24.1126 10.4089C23.791 10.4089 23.6302 10.2426 23.6302 9.91006C23.6302 9.60352 23.785 9.45026 24.0945 9.45026C24.4041 9.45026 24.5649 9.61454 24.5769 9.94311C24.5769 10.2537 24.4221 10.4089 24.1126 10.4089ZM24.6099 7.00099C24.6009 7.08364 24.5258 7.1227 24.4477 7.14074C24.3815 7.15576 24.3139 7.15276 24.2463 7.15276C23.5626 7.16027 23.4379 7.007 23.5912 6.33083C23.6077 6.2602 23.6002 6.17756 23.6588 6.12046H24.5498C24.7136 6.40445 24.64 6.70498 24.6084 7.00099H24.6099ZM33.6001 8.20308C33.5956 8.24816 33.5911 8.29324 33.5866 8.33832C33.4799 8.48708 33.3146 8.59527 33.2815 8.79361C33.1057 8.82367 33.1072 9.02351 32.984 9.10465C32.9119 9.15574 32.8984 9.25191 32.8322 9.30751C32.8924 9.45777 32.6564 9.43373 32.682 9.56295C32.6459 9.60503 32.6174 9.65311 32.5678 9.68316C32.4806 9.74176 32.4596 9.85446 32.3755 9.91607C32.2477 10.1204 32.129 10.3323 31.9893 10.5291C31.8435 10.735 31.6858 10.9393 31.5325 11.1347C31.2605 11.4818 31.0111 11.8499 30.7151 12.1835C30.5468 12.3728 30.419 12.6208 30.2673 12.8296C30.0915 13.0731 29.9112 13.321 29.7324 13.5629C29.5956 13.7477 29.3883 13.874 29.3086 14.1219C29.2711 14.2361 29.1403 14.3713 29.0381 14.487C28.948 14.5802 28.8578 14.6718 28.8158 14.7981C28.5904 14.7139 28.5152 14.4855 28.3635 14.3293C28.1937 14.1955 28.1351 13.9836 28.0058 13.8184C27.9533 13.7507 28.0539 13.6275 28.12 13.5704C28.5393 13.2083 28.9224 12.8056 29.2966 12.4044C29.824 11.8379 30.3364 11.2564 30.8969 10.7215C31.0111 10.5983 31.1328 10.4826 31.2515 10.3638C31.6873 9.81689 32.2282 9.36761 32.685 8.83869C32.8037 8.70195 32.9464 8.58775 33.0441 8.42697C33.1102 8.31578 33.2184 8.21661 33.3507 8.19106C33.4588 8.17003 33.4168 8.09339 33.4408 8.0408C33.4633 8.02427 33.4874 8.01075 33.5144 8.00173C33.6857 8.00925 33.7173 8.07687 33.6016 8.20609L33.6001 8.20308Z" fill="#BAE24B"/>
</svg>
