<svg xmlns="http://www.w3.org/2000/svg" width="800" height="500" viewBox="0 0 800 500">
  <rect width="800" height="500" fill="#ffffff"/>
  <g stroke="#e5e7eb" stroke-width="1">
    <line x1="64" y1="80" x2="768" y2="80"/>
    <line x1="64" y1="160" x2="768" y2="160"/>
    <line x1="64" y1="240" x2="768" y2="240"/>
    <line x1="64" y1="320" x2="768" y2="320"/>
  </g>
  <g stroke="#374151" stroke-width="2">
    <line x1="64" y1="48" x2="64" y2="400"/>
    <line x1="64" y1="400" x2="768" y2="400"/>
  </g>
  <g fill="#6b7280" font-family="sans-serif" font-size="14" text-anchor="end">
    <text x="56" y="85">$20B</text>
    <text x="56" y="165">$15B</text>
    <text x="56" y="245">$10B</text>
    <text x="56" y="325">$5B</text>
    <text x="56" y="405">$0</text>
  </g>
  <g fill="#6b7280" font-family="sans-serif" font-size="14" text-anchor="middle">
    <text x="96" y="424">Mar</text>
    <text x="157" y="424">Apr</text>
    <text x="218" y="424">May</text>
    <text x="279" y="424">Jun</text>
    <text x="340" y="424">Jul</text>
    <text x="401" y="424">Aug</text>
    <text x="462" y="424">Sep</text>
    <text x="523" y="424">Oct</text>
    <text x="584" y="424">Nov</text>
    <text x="645" y="424">Dec</text>
    <text x="706" y="424">Jan</text>
    <text x="767" y="424">Feb</text>
  </g>
  <polyline
    points="96,340 157,332 218,344 279,318 340,300 401,282 462,268 523,240 584,224 645,210 706,188 767,168"
    fill="none"
    stroke="#14b8a6"
    stroke-width="3"
    stroke-linejoin="round"
    stroke-linecap="round"/>
  <g fill="#14b8a6">
    <circle cx="96" cy="340" r="4"/>
    <circle cx="279" cy="318" r="4"/>
    <circle cx="462" cy="268" r="4"/>
    <circle cx="645" cy="210" r="4"/>
    <circle cx="767" cy="168" r="4"/>
  </g>
</svg>
